<svg width="580" height="164" viewBox="0 0 580 164" fill="none" xmlns="http://www.w3.org/2000/svg">
<path d="M62.4711 46H29.2401L4 63.8325V122H547.884L576 102.916V46H280" stroke="white" stroke-width="7.62667"/>
<line x1="283.813" y1="46" x2="283.813" y2="122" stroke="white" stroke-width="7.62667"/>
<path d="M95.1814 30.4473V19.9533H113.463V68.1333H101.715V30.4473H95.1814ZM119.996 30.4473V19.9533H138.278V68.1333H126.53V30.4473H119.996ZM172.266 5.4333L154.578 80.4753H143.688L161.376 5.4333H172.266ZM175.509 59.0913C177.005 57.9033 177.687 57.3533 177.555 57.4413C181.867 53.8773 185.255 50.9513 187.719 48.6633C190.227 46.3753 192.339 43.9773 194.055 41.4693C195.771 38.9613 196.629 36.5193 196.629 34.1433C196.629 32.3393 196.211 30.9313 195.375 29.9193C194.539 28.9073 193.285 28.4013 191.613 28.4013C189.941 28.4013 188.621 29.0393 187.653 30.3153C186.729 31.5473 186.267 33.3073 186.267 35.5953H175.377C175.465 31.8553 176.257 28.7313 177.753 26.2233C179.293 23.7153 181.295 21.8673 183.759 20.6793C186.267 19.4913 189.039 18.8973 192.075 18.8973C197.311 18.8973 201.249 20.2393 203.889 22.9233C206.573 25.6073 207.915 29.1053 207.915 33.4173C207.915 38.1253 206.309 42.5033 203.097 46.5513C199.885 50.5553 195.793 54.4713 190.821 58.2993H208.641V67.4733H175.509V59.0913ZM214.006 33.5493C214.182 28.8413 215.722 25.2113 218.626 22.6593C221.53 20.1073 225.468 18.8313 230.44 18.8313C233.74 18.8313 236.556 19.4033 238.888 20.5473C241.264 21.6913 243.046 23.2533 244.234 25.2333C245.466 27.2133 246.082 29.4353 246.082 31.8993C246.082 34.8033 245.356 37.1793 243.904 39.0273C242.452 40.8313 240.758 42.0633 238.822 42.7233V42.9873C241.33 43.8233 243.31 45.2093 244.762 47.1453C246.214 49.0813 246.94 51.5673 246.94 54.6033C246.94 57.3313 246.302 59.7513 245.026 61.8633C243.794 63.9313 241.968 65.5593 239.548 66.7473C237.172 67.9353 234.334 68.5293 231.034 68.5293C225.754 68.5293 221.53 67.2313 218.362 64.6353C215.238 62.0393 213.588 58.1233 213.412 52.8873H224.368C224.412 54.8233 224.962 56.3633 226.018 57.5073C227.074 58.6073 228.614 59.1573 230.638 59.1573C232.354 59.1573 233.674 58.6733 234.598 57.7053C235.566 56.6933 236.05 55.3733 236.05 53.7453C236.05 51.6333 235.368 50.1153 234.004 49.1913C232.684 48.2233 230.55 47.7393 227.602 47.7393H225.49V38.5653H227.602C229.846 38.5653 231.65 38.1913 233.014 37.4433C234.422 36.6513 235.126 35.2653 235.126 33.2853C235.126 31.7013 234.686 30.4693 233.806 29.5893C232.926 28.7093 231.716 28.2693 230.176 28.2693C228.504 28.2693 227.25 28.7753 226.414 29.7873C225.622 30.7993 225.16 32.0533 225.028 33.5493H214.006Z" fill="#FFE500"/>
<path d="M217.4 83.15L211.22 104H207.35L202.97 88.22L198.32 104L194.48 104.03L188.57 83.15H192.2L196.52 100.13L201.2 83.15H205.04L209.39 100.04L213.74 83.15H217.4ZM235.371 95.33C235.371 95.95 235.331 96.51 235.251 97.01H222.621C222.721 98.33 223.211 99.39 224.091 100.19C224.971 100.99 226.051 101.39 227.331 101.39C229.171 101.39 230.471 100.62 231.231 99.08H234.921C234.421 100.6 233.511 101.85 232.191 102.83C230.891 103.79 229.271 104.27 227.331 104.27C225.751 104.27 224.331 103.92 223.071 103.22C221.831 102.5 220.851 101.5 220.131 100.22C219.431 98.92 219.081 97.42 219.081 95.72C219.081 94.02 219.421 92.53 220.101 91.25C220.801 89.95 221.771 88.95 223.011 88.25C224.271 87.55 225.711 87.2 227.331 87.2C228.891 87.2 230.281 87.54 231.501 88.22C232.721 88.9 233.671 89.86 234.351 91.1C235.031 92.32 235.371 93.73 235.371 95.33ZM231.801 94.25C231.781 92.99 231.331 91.98 230.451 91.22C229.571 90.46 228.481 90.08 227.181 90.08C226.001 90.08 224.991 90.46 224.151 91.22C223.311 91.96 222.811 92.97 222.651 94.25H231.801ZM237.596 95.66C237.596 94 237.936 92.53 238.616 91.25C239.316 89.97 240.256 88.98 241.436 88.28C242.636 87.56 243.966 87.2 245.426 87.2C246.506 87.2 247.566 87.44 248.606 87.92C249.666 88.38 250.506 89 251.126 89.78V81.8H254.576V104H251.126V101.51C250.566 102.31 249.786 102.97 248.786 103.49C247.806 104.01 246.676 104.27 245.396 104.27C243.956 104.27 242.636 103.91 241.436 103.19C240.256 102.45 239.316 101.43 238.616 100.13C237.936 98.81 237.596 97.32 237.596 95.66ZM251.126 95.72C251.126 94.58 250.886 93.59 250.406 92.75C249.946 91.91 249.336 91.27 248.576 90.83C247.816 90.39 246.996 90.17 246.116 90.17C245.236 90.17 244.416 90.39 243.656 90.83C242.896 91.25 242.276 91.88 241.796 92.72C241.336 93.54 241.106 94.52 241.106 95.66C241.106 96.8 241.336 97.8 241.796 98.66C242.276 99.52 242.896 100.18 243.656 100.64C244.436 101.08 245.256 101.3 246.116 101.3C246.996 101.3 247.816 101.08 248.576 100.64C249.336 100.2 249.946 99.56 250.406 98.72C250.886 97.86 251.126 96.86 251.126 95.72ZM260.448 104.21C259.828 104.21 259.308 104 258.888 103.58C258.468 103.16 258.258 102.64 258.258 102.02C258.258 101.4 258.468 100.88 258.888 100.46C259.308 100.04 259.828 99.83 260.448 99.83C261.048 99.83 261.558 100.04 261.978 100.46C262.398 100.88 262.608 101.4 262.608 102.02C262.608 102.64 262.398 103.16 261.978 103.58C261.558 104 261.048 104.21 260.448 104.21Z" fill="#004397"/>
<path d="M318.44 61.304V63.032H330.224V61.304H318.44ZM325.448 68.456V79.592C325.448 80 325.304 80.096 324.824 80.12C324.392 80.144 322.784 80.144 321.08 80.096C321.344 80.624 321.584 81.368 321.656 81.872C324.008 81.872 325.376 81.848 326.192 81.584C327.008 81.296 327.272 80.744 327.272 79.616V68.456H325.448ZM317.384 67.928V69.632H330.92V67.928H317.384ZM312.584 69.776V81.992H314.384V68.312L314.168 68.216L312.584 69.776ZM315.368 64.976C313.712 67.736 311.072 70.52 308.576 72.296C308.96 72.632 309.584 73.424 309.848 73.784C312.368 71.768 315.2 68.672 317.072 65.624L315.368 64.976ZM314.384 59.84C313.16 61.568 310.832 63.728 308.84 65.072C309.152 65.432 309.632 66.128 309.896 66.512C312.032 64.976 314.504 62.648 316.112 60.536L314.384 59.84ZM333.2 61.544V63.272H344.24V61.544H333.2ZM339.128 68.552V70.28H343.352V68.552H339.128ZM338.312 62.48V77.648H340.064V62.48H338.312ZM334.232 66.92V78.32H335.864V66.92H334.232ZM332.792 77.912L333.128 79.712C336.128 79.04 340.376 78.056 344.384 77.096L344.216 75.44C340.04 76.376 335.6 77.384 332.792 77.912ZM345.872 64.328V66.008H355.016V64.328H345.872ZM346.688 59.84C345.944 63.944 344.624 67.904 342.632 70.4C343.064 70.664 343.784 71.264 344.096 71.6C346.112 68.84 347.6 64.64 348.488 60.152L346.688 59.84ZM351.68 65.192C350.648 72.8 348.296 77.672 342.632 80.408C342.968 80.792 343.52 81.56 343.688 81.992C349.688 78.824 352.256 73.664 353.48 65.384L351.68 65.192ZM346.64 65.864L345.056 66.152C346.376 73.496 348.896 79.256 353.984 81.944C354.272 81.464 354.824 80.768 355.232 80.408C350.36 78.128 347.816 72.56 346.64 65.864ZM370.688 59.912V63.488H372.44V59.912H370.688ZM364.928 62.624V67.016H366.536V64.208H377V66.992H378.68V62.624H364.928ZM366.824 66.872V68.456H376.736V66.872H366.824ZM365.192 71.192V72.824H378.752V71.192H365.192ZM368.408 71.912C368.216 76.4 367.544 79.112 363.272 80.552C363.632 80.888 364.112 81.536 364.28 81.944C369.008 80.24 369.872 77.048 370.16 71.912H368.408ZM372.848 71.768V79.304C372.848 81.08 373.256 81.608 374.888 81.608C375.224 81.608 376.616 81.608 376.976 81.608C378.392 81.608 378.824 80.792 378.992 77.672C378.512 77.576 377.792 77.288 377.456 76.976C377.408 79.592 377.312 79.976 376.784 79.976C376.496 79.976 375.368 79.976 375.152 79.976C374.648 79.976 374.552 79.88 374.552 79.28V71.768H372.848ZM357.92 60.896V81.944H359.552V62.528H363.584V60.896H357.92ZM363.032 60.896V61.376C362.528 63.032 361.64 65.888 360.776 68.072C362.504 69.944 362.936 71.576 362.936 72.872C362.936 73.592 362.816 74.24 362.432 74.504C362.24 74.648 361.976 74.72 361.688 74.72C361.304 74.768 360.848 74.744 360.296 74.696C360.56 75.152 360.704 75.848 360.728 76.28C361.28 76.304 361.88 76.304 362.36 76.256C362.84 76.184 363.272 76.04 363.608 75.824C364.28 75.344 364.544 74.336 364.544 73.04C364.544 71.552 364.16 69.872 362.384 67.88C363.2 65.96 364.088 63.488 364.784 61.52L363.632 60.824L363.344 60.896H363.032ZM381.44 62.264V63.968H402.584V62.264H381.44ZM386.384 71.888V73.352H397.736V71.888H386.384ZM385.88 75.8V77.312H398.168V75.8H385.88ZM391.04 72.584V81.464H392.768V72.584H391.04ZM382.736 66.488V81.896H384.536V68.168H400.088V66.488H382.736ZM399.464 66.488V79.832C399.464 80.216 399.368 80.336 398.936 80.36C398.504 80.384 397.016 80.384 395.504 80.312C395.768 80.768 396.056 81.464 396.152 81.944C398.12 81.944 399.488 81.92 400.256 81.656C401.048 81.392 401.312 80.888 401.312 79.832V66.488H399.464ZM387.584 68.96C388.184 69.848 388.808 71.072 389.048 71.888L390.56 71.336C390.296 70.544 389.672 69.368 389.024 68.504L387.584 68.96ZM394.928 68.48C394.52 69.512 393.776 71.024 393.176 72.008L394.472 72.44C395.096 71.528 395.84 70.184 396.464 68.936L394.928 68.48ZM390.992 59.864V67.616H392.984V59.864H390.992ZM418.4 61.28V81.944H420.152V62.984H425.6V61.28H418.4ZM405.608 62.504V64.112H417.08V62.504H405.608ZM404.984 69.152V70.808H417.392V69.152H404.984ZM410.432 59.936V63.488H412.184V59.936H410.432ZM407.096 64.952C407.6 66.176 408.008 67.808 408.128 68.864L409.736 68.48C409.592 67.424 409.136 65.816 408.608 64.616L407.096 64.952ZM413.984 64.448C413.696 65.672 413.12 67.448 412.64 68.552L414.08 68.936C414.608 67.88 415.184 66.272 415.712 64.856L413.984 64.448ZM407.24 78.944V80.552H415.136V78.944H407.24ZM406.592 72.896V81.944H408.272V74.504H414.32V81.824H416.048V72.896H406.592ZM425.12 61.28V61.856C424.4 63.752 423.104 67.064 421.88 69.536C424.304 71.648 425 73.448 425.024 74.96C425.024 75.848 424.856 76.544 424.328 76.856C424.04 77.024 423.704 77.12 423.296 77.144C422.816 77.168 422.12 77.144 421.424 77.096C421.736 77.6 421.904 78.368 421.928 78.872C422.624 78.896 423.416 78.92 424.016 78.848C424.64 78.752 425.168 78.584 425.6 78.32C426.44 77.744 426.776 76.616 426.776 75.152C426.752 73.424 426.176 71.528 423.752 69.296C424.856 67.088 426.104 64.304 427.088 62.048L425.768 61.208L425.48 61.28H425.12ZM431.312 60.728V62.408H436.88V60.728H431.312ZM431.312 66.344V68.024H436.928V66.344H431.312ZM440.672 68.96V70.64H449.384V68.96H440.672ZM431.264 72.104V73.808H436.88V72.104H431.264ZM430.568 60.728V69.368C430.568 72.896 430.448 77.72 428.792 81.104C429.224 81.272 429.944 81.68 430.28 81.968C431.984 78.416 432.224 73.112 432.224 69.368V60.728H430.568ZM435.872 60.728V79.76C435.872 80.096 435.752 80.192 435.416 80.216C435.128 80.24 434.12 80.24 432.992 80.216C433.232 80.672 433.448 81.488 433.52 81.92C435.152 81.944 436.112 81.896 436.736 81.608C437.336 81.296 437.552 80.744 437.552 79.784V60.728H435.872ZM448.136 60.8V65.432C448.136 65.72 448.04 65.816 447.656 65.816C447.272 65.84 446 65.84 444.56 65.816C444.776 66.248 445.04 66.848 445.136 67.352C446.96 67.352 448.16 67.352 448.904 67.088C449.672 66.824 449.864 66.344 449.864 65.456V60.8H448.136ZM448.904 68.96V69.296C447.872 74.552 444.896 78.656 441.488 80.456C441.848 80.768 442.328 81.392 442.544 81.8C446.288 79.568 449.36 75.416 450.56 69.272L449.504 68.912L449.216 68.96H448.904ZM443.36 69.992L441.92 70.376C443.432 75.488 446.216 79.832 450.104 81.944C450.368 81.536 450.872 80.912 451.28 80.576C447.512 78.752 444.728 74.648 443.36 69.992ZM439.664 60.8V81.92H441.368V62.48H448.616V60.8H439.664ZM453.368 61.04V62.6H461.552V61.04H453.368ZM462.632 73.304V74.864H473.048V73.304H462.632ZM453.104 68.288V69.896H462.128V68.288H453.104ZM457.304 68.936V79.832C457.304 80.096 457.208 80.168 456.944 80.192C456.656 80.192 455.696 80.192 454.664 80.168C454.904 80.648 455.144 81.392 455.192 81.848C456.68 81.848 457.616 81.824 458.216 81.56C458.864 81.248 459.032 80.768 459.032 79.832V68.936H457.304ZM472.424 73.304V73.592C472.064 77.792 471.632 79.472 471.128 79.952C470.912 80.168 470.696 80.192 470.312 80.192C469.928 80.192 468.968 80.168 467.936 80.072C468.2 80.552 468.368 81.272 468.416 81.752C469.496 81.824 470.552 81.824 471.104 81.776C471.752 81.728 472.184 81.584 472.616 81.152C473.312 80.432 473.744 78.608 474.2 74.096C474.248 73.832 474.272 73.304 474.272 73.304H472.424ZM467.12 70.928C466.712 75.08 465.776 78.704 460.784 80.552C461.168 80.864 461.648 81.512 461.864 81.944C467.288 79.832 468.464 75.776 468.92 70.928H467.12ZM454.208 65.048C456.248 65.96 458.696 67.472 459.896 68.576L461.096 67.256C459.848 66.152 457.352 64.736 455.336 63.896L454.208 65.048ZM461.648 68.288V68.6C461.264 70.328 460.664 72.464 460.04 73.784L461.312 74.408C462.056 72.92 462.776 70.616 463.28 68.6L462.176 68.216L461.912 68.288H461.648ZM471.272 63.104C469.976 66.824 466.616 68.96 462.248 70.064C462.608 70.448 463.16 71.192 463.376 71.576C467.912 70.16 471.512 67.76 473.12 63.416L471.272 63.104ZM466.136 59.84C465.176 62.144 463.424 64.328 461.528 65.744C461.984 65.984 462.704 66.488 463.016 66.8C464.864 65.264 466.712 62.864 467.84 60.296L466.136 59.84ZM465.704 63.608L464.216 64.112C466.136 67.808 469.736 70.496 474.128 71.672C474.368 71.192 474.896 70.496 475.28 70.136C471.008 69.2 467.432 66.8 465.704 63.608ZM457.088 68.816C456.296 71.576 454.592 74.72 452.864 76.352C453.176 76.784 453.608 77.528 453.8 78.032C455.672 76.16 457.4 72.44 458.312 69.272L457.088 68.816ZM465.608 62.384L464.864 63.92H474.776V62.384H465.608ZM461.12 61.04V61.376C460.328 62.672 458.648 64.424 457.112 65.432C457.472 65.648 458.024 66.032 458.336 66.32C459.992 65.216 461.864 63.392 462.968 61.712L461.792 60.968L461.504 61.04H461.12ZM478.304 64.136V75.56H480.104V65.912H495.776V75.44H497.648V64.136H478.304ZM479.264 72.296V74.048H496.856V72.296H479.264ZM486.992 59.84V81.896H488.864V59.84H486.992ZM507.296 66.56V78.608C507.296 80.96 508.04 81.608 510.584 81.608C511.136 81.608 514.712 81.608 515.288 81.608C517.904 81.608 518.456 80.264 518.72 75.728C518.192 75.608 517.448 75.272 517.016 74.912C516.824 79.064 516.608 79.952 515.192 79.952C514.376 79.952 511.352 79.952 510.752 79.952C509.432 79.952 509.144 79.736 509.144 78.608V66.56H507.296ZM507.488 61.328C510.392 62.36 513.896 64.16 515.744 65.552L516.896 63.968C515 62.672 511.52 60.944 508.616 59.96L507.488 61.328ZM503.288 68.48C502.952 71.6 502.16 75.104 500.552 77.216L502.184 78.2C503.912 75.896 504.656 72.056 505.016 68.84L503.288 68.48ZM517.28 68.504C519.32 71.216 521.12 74.96 521.648 77.48L523.448 76.616C522.848 74.072 521.048 70.448 518.888 67.712L517.28 68.504ZM312.512 94.44L308.96 97.008V94.176L312.992 91.224H315.536V108H312.512V94.44ZM325.161 108.36C323.689 108.36 322.409 108.008 321.321 107.304C320.233 106.6 319.393 105.592 318.801 104.28C318.225 102.968 317.937 101.416 317.937 99.624C317.937 97.832 318.225 96.28 318.801 94.968C319.377 93.64 320.201 92.624 321.273 91.92C322.361 91.216 323.657 90.864 325.161 90.864C326.649 90.864 327.937 91.216 329.025 91.92C330.113 92.624 330.945 93.64 331.521 94.968C332.097 96.28 332.385 97.832 332.385 99.624C332.385 101.416 332.097 102.968 331.521 104.28C330.945 105.592 330.113 106.6 329.025 107.304C327.937 108.008 326.649 108.36 325.161 108.36ZM325.161 105.624C326.489 105.624 327.513 105.096 328.233 104.04C328.969 102.968 329.337 101.504 329.337 99.648C329.337 97.792 328.977 96.328 328.257 95.256C327.537 94.184 326.513 93.648 325.185 93.648C323.857 93.648 322.825 94.184 322.089 95.256C321.369 96.328 321.009 97.792 321.009 99.648C321.009 101.504 321.369 102.968 322.089 104.04C322.825 105.096 323.849 105.624 325.161 105.624ZM341.856 102.408V103.872H356.472V102.408H341.856ZM348.36 87.84V100.512H350.04V87.84H348.36ZM345.264 90.744H353.256V94.608H345.264V90.744ZM343.68 89.52V95.808H354.888V89.52H343.68ZM344.784 98.256H353.664V99.768H344.784V98.256ZM343.176 97.032V100.968H355.344V97.032H343.176ZM347.136 100.488C346.104 102.408 344.592 104.904 343.512 106.464L345.048 106.968C346.128 105.36 347.64 102.864 348.72 100.872L347.136 100.488ZM352.008 103.152C351.264 106.512 349.08 108 341.616 108.624C341.904 108.984 342.24 109.608 342.336 109.992C350.256 109.2 352.776 107.304 353.688 103.152H352.008ZM344.616 106.416C348.192 107.28 352.776 108.816 355.104 109.992L356.136 108.72C353.664 107.52 349.08 106.056 345.6 105.312L344.616 106.416ZM342.048 91.92V93.36H344.568V93.24H354.024V93.36H356.52V91.92H354.024V92.04H344.568V91.92H342.048ZM334.56 93.048V94.752H342.072V93.048H334.56ZM337.776 87.84V109.896H339.432V87.84H337.776ZM337.752 94.056C337.128 97.488 335.592 101.64 334.056 103.824C334.344 104.232 334.776 104.904 334.992 105.384C336.648 102.984 338.16 98.232 338.856 94.44L337.752 94.056ZM339.288 96.408L338.544 97.128C339.12 98.064 340.752 100.896 341.256 102.072L342.216 100.752C341.784 100.08 339.816 97.056 339.288 96.408ZM362.784 96.048H375.96V99.672H362.784V96.048ZM361.248 94.824V100.896H377.592V94.824H361.248ZM365.184 92.232V93.504H373.56V92.232H365.184ZM368.472 95.208V100.224H370.008V95.208H368.472ZM369.216 89.304C371.664 91.656 375.984 94.032 379.512 95.256C379.776 94.8 380.184 94.152 380.568 93.768C376.848 92.664 372.672 90.456 369.96 87.84H368.256C366.264 90.168 362.208 92.616 358.128 94.008C358.464 94.392 358.872 95.016 359.088 95.424C363.072 93.936 367.08 91.488 369.216 89.304ZM364.248 96.768C364.848 97.632 365.4 98.808 365.592 99.576L366.984 99.072C366.744 98.304 366.168 97.176 365.544 96.336L364.248 96.768ZM372.888 96.24C372.6 97.056 371.976 98.328 371.52 99.144L372.792 99.576C373.272 98.856 373.872 97.752 374.424 96.72L372.888 96.24ZM362.664 102.048V109.92H364.44V103.32H374.4V109.896H376.224V102.048H362.664ZM363.72 104.928V106.248H375.192V104.928H363.72ZM363.72 107.88V109.176H375.192V107.88H363.72ZM396.24 90.6V96.6H397.992V90.6H396.24ZM393.36 99V108.24C393.36 108.504 393.288 108.576 393 108.6C392.712 108.6 391.776 108.6 390.768 108.576C390.96 108.984 391.2 109.56 391.272 109.944C392.664 109.944 393.6 109.92 394.2 109.704C394.776 109.488 394.944 109.08 394.944 108.264V99H393.36ZM400.344 87.816C400.056 88.488 399.456 89.544 399 90.216L400.248 90.672C400.752 90.048 401.376 89.208 401.928 88.296L400.344 87.816ZM392.592 88.344C393.192 89.088 393.792 90.072 394.056 90.744L395.424 90.168C395.16 89.496 394.488 88.512 393.888 87.84L392.592 88.344ZM400.296 98.784C401.256 99.432 402.384 100.416 402.888 101.16L403.992 100.248C403.464 99.552 402.336 98.592 401.352 97.968L400.296 98.784ZM389.88 105.096L390.096 106.56C392.208 106.248 394.92 105.84 397.584 105.432L397.536 104.088C394.704 104.496 391.848 104.856 389.88 105.096ZM396.288 97.824C394.92 98.328 392.424 98.736 390.312 98.976C390.48 99.312 390.672 99.816 390.744 100.128C392.928 99.912 395.568 99.504 397.368 98.928L396.288 97.824ZM390.84 90.216V91.536H403.656V90.216H390.84ZM391.632 93.096V94.344H403.008V93.096H391.632ZM389.976 96.024V97.392H404.16V96.024H389.976ZM389.952 101.448V102.84H404.208V101.448H389.952ZM397.824 97.968C398.064 105.528 399.528 110.112 402.48 110.112C403.68 110.112 404.256 109.416 404.52 107.232C404.16 107.088 403.68 106.872 403.368 106.56C403.248 108.12 403.032 108.648 402.624 108.648C400.944 108.672 399.48 105.048 399.384 97.968H397.824ZM401.832 103.368C400.608 105.696 398.16 107.616 395.664 108.696C395.976 108.96 396.384 109.392 396.576 109.68C399.168 108.504 401.76 106.44 403.152 103.992L401.832 103.368ZM383.232 95.112V96.552H389.4V95.112H383.232ZM383.376 88.704V90.144H389.328V88.704H383.376ZM383.232 98.328V99.768H389.4V98.328H383.232ZM382.248 91.848V93.336H390V91.848H382.248ZM384.072 101.568V103.056H387.864V107.064H384.072V108.552H389.376V101.568H384.072ZM383.184 101.568V109.68H384.672V101.568H383.184ZM416.352 100.104V108.24H418.2V100.104H416.352ZM409.464 93.744V95.328H425.352V93.744H409.464ZM406.728 107.64V109.248H428.016V107.64H406.728ZM408.936 103.032V104.616H425.904V103.032H408.936ZM414.264 94.584C413.592 96.048 412.368 98.184 411.408 99.504L412.848 100.008C413.856 98.76 415.128 96.792 416.112 95.112L414.264 94.584ZM408.504 98.88L408.6 100.536C412.632 100.44 418.776 100.248 424.584 100.008L424.68 98.472C418.752 98.64 412.464 98.832 408.504 98.88ZM420.096 96.768C422.112 98.112 424.512 100.128 425.616 101.52L427.008 100.488C425.856 99.096 423.408 97.152 421.392 95.856L420.096 96.768ZM416.352 87.864V90.792H418.2V87.864H416.352ZM407.016 89.664V94.104H408.768V91.32H425.88V94.104H427.704V89.664H407.016Z" fill="#004397"/>
<path d="M21.512 91.44L17.96 94.008V91.176L21.992 88.224H24.536V105H21.512V91.44ZM32.1926 105.36C31.2006 105.36 30.2406 105.28 29.3126 105.12C28.4006 104.96 27.6086 104.72 26.9366 104.4V102.072C28.4566 102.76 30.0726 103.104 31.7846 103.104C33.1446 103.104 34.1606 102.864 34.8326 102.384C35.5206 101.888 35.8646 101.184 35.8646 100.272C35.8646 99.328 35.5286 98.664 34.8566 98.28C34.2006 97.88 33.1766 97.68 31.7846 97.68H29.6966V95.328H31.7126C32.8326 95.328 33.7206 95.12 34.3766 94.704C35.0326 94.272 35.3606 93.624 35.3606 92.76C35.3606 91.896 35.0646 91.24 34.4726 90.792C33.8966 90.344 33.0806 90.12 32.0246 90.12C31.1126 90.12 30.2886 90.232 29.5526 90.456C28.8326 90.664 28.0966 91 27.3446 91.464V89.112C28.7846 88.28 30.4806 87.864 32.4326 87.864C34.4166 87.864 35.9126 88.288 36.9206 89.136C37.9286 89.968 38.4326 91.136 38.4326 92.64C38.4326 93.472 38.2086 94.224 37.7606 94.896C37.3286 95.568 36.6806 96.096 35.8166 96.48C36.8406 96.784 37.6166 97.272 38.1446 97.944C38.6726 98.6 38.9366 99.424 38.9366 100.416C38.9366 101.968 38.4006 103.184 37.3286 104.064C36.2566 104.928 34.5446 105.36 32.1926 105.36ZM42.4424 96.456C42.0104 96.456 41.6344 96.304 41.3144 96C41.0104 95.68 40.8584 95.304 40.8584 94.872C40.8584 94.44 41.0104 94.072 41.3144 93.768C41.6344 93.448 42.0104 93.288 42.4424 93.288C42.8744 93.288 43.2424 93.448 43.5464 93.768C43.8664 94.072 44.0264 94.44 44.0264 94.872C44.0264 95.304 43.8664 95.68 43.5464 96C43.2424 96.304 42.8744 96.456 42.4424 96.456ZM42.4424 104.616C42.0104 104.616 41.6344 104.464 41.3144 104.16C41.0104 103.84 40.8584 103.464 40.8584 103.032C40.8584 102.6 41.0104 102.232 41.3144 101.928C41.6344 101.608 42.0104 101.448 42.4424 101.448C42.8744 101.448 43.2424 101.608 43.5464 101.928C43.8664 102.232 44.0264 102.6 44.0264 103.032C44.0264 103.464 43.8664 103.84 43.5464 104.16C43.2424 104.464 42.8744 104.616 42.4424 104.616ZM51.2004 105.36C50.2084 105.36 49.2484 105.28 48.3204 105.12C47.4084 104.96 46.6164 104.72 45.9444 104.4V102.072C47.4644 102.76 49.0804 103.104 50.7924 103.104C52.1524 103.104 53.1684 102.864 53.8404 102.384C54.5284 101.888 54.8724 101.184 54.8724 100.272C54.8724 99.328 54.5364 98.664 53.8644 98.28C53.2084 97.88 52.1844 97.68 50.7924 97.68H48.7044V95.328H50.7204C51.8404 95.328 52.7284 95.12 53.3844 94.704C54.0404 94.272 54.3684 93.624 54.3684 92.76C54.3684 91.896 54.0724 91.24 53.4804 90.792C52.9044 90.344 52.0884 90.12 51.0324 90.12C50.1204 90.12 49.2964 90.232 48.5604 90.456C47.8404 90.664 47.1044 91 46.3524 91.464V89.112C47.7924 88.28 49.4884 87.864 51.4404 87.864C53.4244 87.864 54.9204 88.288 55.9284 89.136C56.9364 89.968 57.4404 91.136 57.4404 92.64C57.4404 93.472 57.2164 94.224 56.7684 94.896C56.3364 95.568 55.6884 96.096 54.8244 96.48C55.8484 96.784 56.6244 97.272 57.1524 97.944C57.6804 98.6 57.9444 99.424 57.9444 100.416C57.9444 101.968 57.4084 103.184 56.3364 104.064C55.2644 104.928 53.5524 105.36 51.2004 105.36ZM67.0903 105.36C65.6183 105.36 64.3383 105.008 63.2503 104.304C62.1623 103.6 61.3223 102.592 60.7303 101.28C60.1543 99.968 59.8663 98.416 59.8663 96.624C59.8663 94.832 60.1543 93.28 60.7303 91.968C61.3063 90.64 62.1303 89.624 63.2023 88.92C64.2903 88.216 65.5863 87.864 67.0903 87.864C68.5783 87.864 69.8663 88.216 70.9543 88.92C72.0423 89.624 72.8743 90.64 73.4503 91.968C74.0263 93.28 74.3143 94.832 74.3143 96.624C74.3143 98.416 74.0263 99.968 73.4503 101.28C72.8743 102.592 72.0423 103.6 70.9543 104.304C69.8663 105.008 68.5783 105.36 67.0903 105.36ZM67.0903 102.624C68.4183 102.624 69.4423 102.096 70.1623 101.04C70.8983 99.968 71.2663 98.504 71.2663 96.648C71.2663 94.792 70.9063 93.328 70.1863 92.256C69.4663 91.184 68.4423 90.648 67.1143 90.648C65.7863 90.648 64.7543 91.184 64.0183 92.256C63.2983 93.328 62.9383 94.792 62.9383 96.648C62.9383 98.504 63.2983 99.968 64.0183 101.04C64.7543 102.096 65.7783 102.624 67.0903 102.624ZM84.5776 98.688C84.1296 98.688 83.6816 98.624 83.2336 98.496C82.8016 98.368 82.2896 98.184 81.6976 97.944C81.0416 97.704 80.5216 97.528 80.1376 97.416C79.7536 97.304 79.3536 97.248 78.9376 97.248C77.8176 97.248 76.9136 97.72 76.2256 98.664V95.952C76.4816 95.568 76.8416 95.272 77.3056 95.064C77.7856 94.856 78.3296 94.752 78.9376 94.752C79.3856 94.752 79.8176 94.816 80.2336 94.944C80.6656 95.056 81.2176 95.24 81.8896 95.496C82.4656 95.72 82.9536 95.896 83.3536 96.024C83.7696 96.136 84.1776 96.192 84.5776 96.192C85.6976 96.192 86.6016 95.72 87.2896 94.776V97.488C87.0336 97.872 86.6656 98.168 86.1856 98.376C85.7216 98.584 85.1856 98.688 84.5776 98.688ZM92.762 91.44L89.21 94.008V91.176L93.242 88.224H95.786V105H92.762V91.44ZM106.467 90.744H97.9466V88.224H109.587V90.336L102.963 105H100.011L106.467 90.744ZM112.849 96.456C112.417 96.456 112.041 96.304 111.721 96C111.417 95.68 111.265 95.304 111.265 94.872C111.265 94.44 111.417 94.072 111.721 93.768C112.041 93.448 112.417 93.288 112.849 93.288C113.281 93.288 113.649 93.448 113.953 93.768C114.273 94.072 114.433 94.44 114.433 94.872C114.433 95.304 114.273 95.68 113.953 96C113.649 96.304 113.281 96.456 112.849 96.456ZM112.849 104.616C112.417 104.616 112.041 104.464 111.721 104.16C111.417 103.84 111.265 103.464 111.265 103.032C111.265 102.6 111.417 102.232 111.721 101.928C112.041 101.608 112.417 101.448 112.849 101.448C113.281 101.448 113.649 101.608 113.953 101.928C114.273 102.232 114.433 102.6 114.433 103.032C114.433 103.464 114.273 103.84 113.953 104.16C113.649 104.464 113.281 104.616 112.849 104.616ZM121.607 105.36C120.615 105.36 119.655 105.28 118.727 105.12C117.815 104.96 117.023 104.72 116.351 104.4V102.072C117.871 102.76 119.487 103.104 121.199 103.104C122.559 103.104 123.575 102.864 124.247 102.384C124.935 101.888 125.279 101.184 125.279 100.272C125.279 99.328 124.943 98.664 124.271 98.28C123.615 97.88 122.591 97.68 121.199 97.68H119.111V95.328H121.127C122.247 95.328 123.135 95.12 123.791 94.704C124.447 94.272 124.775 93.624 124.775 92.76C124.775 91.896 124.479 91.24 123.887 90.792C123.311 90.344 122.495 90.12 121.439 90.12C120.527 90.12 119.703 90.232 118.967 90.456C118.247 90.664 117.511 91 116.759 91.464V89.112C118.199 88.28 119.895 87.864 121.847 87.864C123.831 87.864 125.327 88.288 126.335 89.136C127.343 89.968 127.847 91.136 127.847 92.64C127.847 93.472 127.623 94.224 127.175 94.896C126.743 95.568 126.095 96.096 125.231 96.48C126.255 96.784 127.031 97.272 127.559 97.944C128.087 98.6 128.351 99.424 128.351 100.416C128.351 101.968 127.815 103.184 126.743 104.064C125.671 104.928 123.959 105.36 121.607 105.36ZM137.497 105.36C136.025 105.36 134.745 105.008 133.657 104.304C132.569 103.6 131.729 102.592 131.137 101.28C130.561 99.968 130.273 98.416 130.273 96.624C130.273 94.832 130.561 93.28 131.137 91.968C131.713 90.64 132.537 89.624 133.609 88.92C134.697 88.216 135.993 87.864 137.497 87.864C138.985 87.864 140.273 88.216 141.361 88.92C142.449 89.624 143.281 90.64 143.857 91.968C144.433 93.28 144.721 94.832 144.721 96.624C144.721 98.416 144.433 99.968 143.857 101.28C143.281 102.592 142.449 103.6 141.361 104.304C140.273 105.008 138.985 105.36 137.497 105.36ZM137.497 102.624C138.825 102.624 139.849 102.096 140.569 101.04C141.305 99.968 141.673 98.504 141.673 96.648C141.673 94.792 141.313 93.328 140.593 92.256C139.873 91.184 138.849 90.648 137.521 90.648C136.193 90.648 135.161 91.184 134.425 92.256C133.705 93.328 133.345 94.792 133.345 96.648C133.345 98.504 133.705 99.968 134.425 101.04C135.161 102.096 136.185 102.624 137.497 102.624Z" fill="#004397"/>
<path d="M256.68 148.88C256.68 153.584 258.576 157.376 261.456 160.304L262.896 159.56C260.112 156.704 258.408 153.176 258.408 148.88C258.408 144.608 260.112 141.08 262.896 138.224L261.456 137.48C258.576 140.408 256.68 144.2 256.68 148.88ZM265.56 140.144V141.704H286.416V140.144H265.56ZM274.944 137.84V140.888H276.792V137.84H274.944ZM266.616 149.528V159.944H268.368V151.064H284.448V149.528H266.616ZM283.704 149.528V157.736C283.704 158.072 283.608 158.192 283.2 158.192C282.792 158.24 281.448 158.24 279.864 158.192C280.128 158.672 280.392 159.392 280.464 159.896C282.456 159.896 283.752 159.872 284.52 159.608C285.288 159.296 285.504 158.768 285.504 157.784V149.528H283.704ZM271.416 152.624V158.912H273.024V152.624H271.416ZM272.28 152.624V153.92H278.952V156.392H272.28V157.688H280.584V152.624H272.28ZM271.272 144.368H280.656V146.696H271.272V144.368ZM269.544 143.048V148.016H282.48V143.048H269.544ZM289.248 141.704V143.408H299.856V141.704H289.248ZM291.672 157.064L292.224 158.672C294.168 158.168 296.688 157.52 299.088 156.848L298.92 155.408C296.208 156.056 293.496 156.704 291.672 157.064ZM296.952 151.952C297.672 154.088 298.392 156.848 298.608 158.648L300.024 158.12C299.808 156.296 299.064 153.56 298.272 151.448L296.952 151.952ZM295.512 145.76C295.056 149.24 294.072 154.304 293.184 157.232L294.48 157.568C295.416 154.688 296.496 149.768 297.168 146.096L295.512 145.76ZM301.248 147.416V148.976H310.464V147.416H301.248ZM301.248 152.24V153.824H310.464V152.24H301.248ZM301.248 157.184V158.84H311.016V157.184H301.248ZM302.352 137.84C301.344 141.344 299.664 144.752 297.648 146.96C298.032 147.272 298.68 147.968 298.944 148.304C301.032 145.856 302.88 142.088 304.032 138.272L302.352 137.84ZM306.984 138.056C306.552 139.616 305.712 141.872 305.04 143.24L306.456 143.696C307.152 142.4 308.016 140.312 308.712 138.56L306.984 138.056ZM302.28 142.496H302.04L300.6 144.032V159.944H302.28V144.128H310.752V142.496H302.28ZM305.472 143.216V158.144H307.152V143.216H305.472ZM292.464 137.84V139.496C292.464 144.752 292.248 152.072 288.504 158.312C288.984 158.48 289.704 158.84 290.064 159.128C293.88 152.624 294.096 144.968 294.096 139.496V137.84H292.464ZM322.968 137.744V142.232H324.864V137.744H322.968ZM322.992 142.808V159.992H324.84V142.808H322.992ZM313.2 141.176V142.928H334.824V141.176H313.2ZM315.672 146.216V156.944H317.472V147.968H331.44V146.216H315.672ZM330.744 146.216V154.664C330.744 155 330.624 155.096 330.192 155.12C329.784 155.144 328.32 155.144 326.688 155.096C326.952 155.6 327.24 156.32 327.312 156.872C329.376 156.872 330.72 156.848 331.56 156.56C332.352 156.248 332.592 155.696 332.592 154.664V146.216H330.744ZM343.032 147.824V149.408H353.184V147.824H343.032ZM338.76 151.496V153.128H355.272V151.496H338.76ZM345.48 152.144V159.968H347.28V152.144H345.48ZM347.952 144.224C350.4 146.696 354.744 149.048 358.344 150.248C358.608 149.744 359.04 149.048 359.424 148.64C355.68 147.584 351.48 145.4 348.768 142.712H346.944C344.904 145.112 340.872 147.536 336.744 148.88C337.104 149.312 337.536 149.984 337.728 150.416C341.76 148.952 345.792 146.504 347.952 144.224ZM354.504 151.496V156.632C354.504 156.944 354.384 157.016 353.976 157.04C353.592 157.064 352.296 157.064 350.712 157.016C350.976 157.496 351.264 158.144 351.36 158.648C353.28 158.648 354.504 158.648 355.296 158.384C356.04 158.096 356.256 157.592 356.256 156.656V151.496H354.504ZM337.464 139.712V141.344H358.584V139.712H337.464ZM342.768 137.864V143.816H344.544V137.864H342.768ZM351.216 137.864V143.816H352.992V137.864H351.216ZM373.008 147.296V148.856H382.296V147.296H373.008ZM361.416 139.208V140.888H371.04V139.208H361.416ZM361.104 146.672V148.376H371.232V146.672H361.104ZM373.008 152.12V153.704H382.296V152.12H373.008ZM373.008 157.016V158.696H382.944V157.016H373.008ZM374.088 137.864C373.2 141.056 371.712 144.248 369.984 146.336C370.392 146.6 371.088 147.248 371.4 147.536C373.152 145.256 374.784 141.776 375.816 138.296L374.088 137.864ZM378.648 138.104C378.264 139.568 377.472 141.776 376.848 143.072L378.336 143.48C379.008 142.232 379.8 140.24 380.448 138.536L378.648 138.104ZM373.92 142.424H373.848L372.24 144.128V159.968H373.92V144.056H382.656V142.424H373.92ZM367.608 139.928V157.736C367.608 158.12 367.512 158.216 367.152 158.24C366.72 158.24 365.448 158.264 364.104 158.216C364.344 158.696 364.608 159.464 364.68 159.944C366.408 159.944 367.632 159.896 368.328 159.608C369.048 159.32 369.312 158.816 369.312 157.736V139.928H367.608ZM377.28 143.168V157.88H378.96V143.168H377.28ZM362.88 139.976V147.584H364.512V139.976H362.88ZM366.888 147.152C365.64 150.608 363.096 154.304 360.6 156.104C360.984 156.488 361.44 157.184 361.656 157.664C364.272 155.48 366.888 151.592 368.232 147.968L366.888 147.152ZM394.368 143.432H399.888V146.192H394.368V143.432ZM392.688 142.136V147.488H401.664V142.136H392.688ZM391.584 150.44H394.776V153.992H391.584V150.44ZM390.048 149.12V155.312H396.36V149.12H390.048ZM399.528 150.44H402.888V153.992H399.528V150.44ZM397.992 149.12V155.312H404.472V149.12H397.992ZM386.232 138.896V159.944H387.984V140.504H406.296V138.896H386.232ZM387.384 157.112V158.768H406.92V157.112H387.384ZM409.2 139.544V141.272H420.24V139.544H409.2ZM415.128 146.552V148.28H419.352V146.552H415.128ZM414.312 140.48V155.648H416.064V140.48H414.312ZM410.232 144.92V156.32H411.864V144.92H410.232ZM408.792 155.912L409.128 157.712C412.128 157.04 416.376 156.056 420.384 155.096L420.216 153.44C416.04 154.376 411.6 155.384 408.792 155.912ZM421.872 142.328V144.008H431.016V142.328H421.872ZM422.688 137.84C421.944 141.944 420.624 145.904 418.632 148.4C419.064 148.664 419.784 149.264 420.096 149.6C422.112 146.84 423.6 142.64 424.488 138.152L422.688 137.84ZM427.68 143.192C426.648 150.8 424.296 155.672 418.632 158.408C418.968 158.792 419.52 159.56 419.688 159.992C425.688 156.824 428.256 151.664 429.48 143.384L427.68 143.192ZM422.64 143.864L421.056 144.152C422.376 151.496 424.896 157.256 429.984 159.944C430.272 159.464 430.824 158.768 431.232 158.408C426.36 156.128 423.816 150.56 422.64 143.864ZM433.44 140.264V141.968H454.584V140.264H433.44ZM438.384 149.888V151.352H449.736V149.888H438.384ZM437.88 153.8V155.312H450.168V153.8H437.88ZM443.04 150.584V159.464H444.768V150.584H443.04ZM434.736 144.488V159.896H436.536V146.168H452.088V144.488H434.736ZM451.464 144.488V157.832C451.464 158.216 451.368 158.336 450.936 158.36C450.504 158.384 449.016 158.384 447.504 158.312C447.768 158.768 448.056 159.464 448.152 159.944C450.12 159.944 451.488 159.92 452.256 159.656C453.048 159.392 453.312 158.888 453.312 157.832V144.488H451.464ZM439.584 146.96C440.184 147.848 440.808 149.072 441.048 149.888L442.56 149.336C442.296 148.544 441.672 147.368 441.024 146.504L439.584 146.96ZM446.928 146.48C446.52 147.512 445.776 149.024 445.176 150.008L446.472 150.44C447.096 149.528 447.84 148.184 448.464 146.936L446.928 146.48ZM442.992 137.864V145.616H444.984V137.864H442.992ZM463.44 140.888V142.424H471.552V140.888H463.44ZM472.632 139.256V140.888H478.704V139.256H472.632ZM472.416 145.712V147.344H479.016V145.712H472.416ZM462.936 145.664V147.248H472.008V145.664H462.936ZM466.632 137.84V146.576H468.336V137.84H466.632ZM463.08 150.728V152.312H471.84V150.728H463.08ZM466.608 147.752V156.896L468.312 156.56V147.752H466.608ZM462.432 156.512L462.624 158.192C465.264 157.856 468.936 157.4 472.464 156.92L472.44 155.336C468.744 155.816 464.952 156.272 462.432 156.512ZM475.008 146.36V157.712C475.008 158.048 474.912 158.12 474.552 158.144C474.168 158.168 473.04 158.168 471.72 158.12C471.96 158.648 472.176 159.44 472.272 159.92C474 159.92 475.152 159.896 475.872 159.608C476.568 159.32 476.76 158.768 476.76 157.736V146.36H475.008ZM461.016 137.864C460.128 139.496 458.376 141.464 456.72 142.688C457.032 143.024 457.488 143.648 457.728 144.032C459.528 142.616 461.496 140.432 462.672 138.464L461.016 137.864ZM459.576 147.416V159.944H461.256V146.048L461.04 145.976L459.576 147.416ZM461.712 142.688C460.488 145.328 458.448 147.896 456.384 149.576C456.72 149.96 457.248 150.8 457.44 151.16C459.648 149.216 461.928 146.216 463.344 143.24L461.712 142.688ZM487.512 158.36C486.264 158.36 485.144 158.072 484.152 157.496C483.16 156.92 482.376 156.08 481.8 154.976C481.24 153.872 480.96 152.552 480.96 151.016C480.96 148.856 481.28 147.016 481.92 145.496C482.576 143.976 483.512 142.824 484.728 142.04C485.96 141.256 487.416 140.864 489.096 140.864C490.072 140.864 490.936 140.976 491.688 141.2V143.648C491.064 143.36 490.28 143.216 489.336 143.216C487.768 143.216 486.528 143.688 485.616 144.632C484.704 145.56 484.16 146.912 483.984 148.688C484.512 148.128 485.16 147.72 485.928 147.464C486.696 147.192 487.536 147.056 488.448 147.056C489.536 147.056 490.488 147.28 491.304 147.728C492.136 148.176 492.776 148.816 493.224 149.648C493.672 150.464 493.896 151.44 493.896 152.576C493.896 153.68 493.648 154.672 493.152 155.552C492.656 156.432 491.92 157.12 490.944 157.616C489.984 158.112 488.84 158.36 487.512 158.36ZM487.512 156.128C488.536 156.128 489.352 155.816 489.96 155.192C490.584 154.568 490.896 153.744 490.896 152.72C490.896 151.68 490.584 150.848 489.96 150.224C489.352 149.6 488.536 149.288 487.512 149.288C486.552 149.288 485.752 149.616 485.112 150.272C484.472 150.912 484.152 151.728 484.152 152.72C484.152 153.328 484.288 153.896 484.56 154.424C484.848 154.936 485.24 155.352 485.736 155.672C486.248 155.976 486.84 156.128 487.512 156.128ZM498.555 140.264H502.131V143.912H498.555V140.264ZM496.923 138.752V145.448H503.835V138.752H496.923ZM495.819 147.128V148.712H504.867V147.128H495.819ZM498.075 147.848C497.715 149.672 497.163 152.072 496.683 153.608L498.315 153.92C498.747 152.336 499.323 149.84 499.731 147.848H498.075ZM498.267 150.848L497.859 152.384H502.731V150.848H498.267ZM502.059 150.848V151.136C501.771 155.864 501.411 157.712 500.931 158.192C500.739 158.408 500.499 158.456 500.139 158.432C499.755 158.432 498.819 158.432 497.787 158.336C498.075 158.768 498.267 159.464 498.291 159.92C499.299 159.968 500.283 159.968 500.811 159.944C501.459 159.872 501.867 159.728 502.275 159.296C502.947 158.576 503.307 156.608 503.691 151.592C503.715 151.328 503.739 150.848 503.739 150.848H502.059ZM511.107 139.496V140.984H516.843V139.496H511.107ZM506.283 142.616V144.08H516.867V142.616H506.283ZM510.243 137.84V143.384H511.971V137.84H510.243ZM505.515 142.616V148.76C505.515 151.856 505.299 156.032 503.211 159.08C503.619 159.248 504.291 159.752 504.579 160.064C506.811 156.872 507.147 152.12 507.147 148.76V142.616H505.515ZM507.723 146.576L507.891 147.896L514.995 147.128L514.827 145.88L507.723 146.576ZM510.339 144.248V148.544C510.339 150.08 510.771 150.464 512.499 150.464C512.859 150.464 514.779 150.464 515.139 150.464C516.435 150.464 516.891 149.984 517.035 148.136C516.603 148.04 515.979 147.824 515.643 147.608C515.571 148.952 515.475 149.12 514.947 149.12C514.539 149.12 513.003 149.12 512.715 149.12C512.043 149.12 511.947 149.048 511.947 148.544V144.248H510.339ZM516.363 142.616V142.856C516.219 144.128 515.931 145.76 515.691 146.768L517.083 147.104C517.371 146.024 517.755 144.296 518.043 142.832L516.915 142.544L516.627 142.616H516.363ZM509.091 151.52C508.947 155.048 508.419 157.376 505.803 158.72C506.163 159.008 506.643 159.608 506.859 160.016C509.787 158.408 510.483 155.6 510.651 151.52H509.091ZM512.619 151.496V157.376C512.619 158.48 512.715 158.84 513.099 159.176C513.459 159.464 514.011 159.56 514.539 159.56C514.803 159.56 515.595 159.56 515.907 159.56C516.363 159.56 516.891 159.464 517.179 159.32C517.539 159.104 517.803 158.84 517.947 158.384C518.067 157.976 518.187 156.776 518.211 155.648C517.755 155.504 517.155 155.192 516.843 154.904C516.843 155.984 516.819 156.92 516.747 157.304C516.699 157.568 516.579 157.736 516.435 157.808C516.315 157.88 516.003 157.928 515.787 157.928C515.499 157.928 515.115 157.928 514.923 157.928C514.683 157.928 514.491 157.88 514.347 157.808C514.227 157.76 514.179 157.592 514.179 157.424V151.496H512.619ZM523.371 144.44L519.819 147.008V144.176L523.851 141.224H526.395V158H523.371V144.44ZM536.02 158.36C534.548 158.36 533.268 158.008 532.18 157.304C531.092 156.6 530.252 155.592 529.66 154.28C529.084 152.968 528.796 151.416 528.796 149.624C528.796 147.832 529.084 146.28 529.66 144.968C530.236 143.64 531.06 142.624 532.132 141.92C533.22 141.216 534.516 140.864 536.02 140.864C537.508 140.864 538.796 141.216 539.884 141.92C540.972 142.624 541.804 143.64 542.38 144.968C542.956 146.28 543.244 147.832 543.244 149.624C543.244 151.416 542.956 152.968 542.38 154.28C541.804 155.592 540.972 156.6 539.884 157.304C538.796 158.008 537.508 158.36 536.02 158.36ZM536.02 155.624C537.348 155.624 538.372 155.096 539.092 154.04C539.828 152.968 540.196 151.504 540.196 149.648C540.196 147.792 539.836 146.328 539.116 145.256C538.396 144.184 537.372 143.648 536.044 143.648C534.716 143.648 533.684 144.184 532.948 145.256C532.228 146.328 531.868 147.792 531.868 149.648C531.868 151.504 532.228 152.968 532.948 154.04C533.684 155.096 534.708 155.624 536.02 155.624ZM552.715 152.408V153.872H567.331V152.408H552.715ZM559.219 137.84V150.512H560.899V137.84H559.219ZM556.123 140.744H564.115V144.608H556.123V140.744ZM554.539 139.52V145.808H565.747V139.52H554.539ZM555.643 148.256H564.523V149.768H555.643V148.256ZM554.035 147.032V150.968H566.203V147.032H554.035ZM557.995 150.488C556.963 152.408 555.451 154.904 554.371 156.464L555.907 156.968C556.987 155.36 558.499 152.864 559.579 150.872L557.995 150.488ZM562.867 153.152C562.123 156.512 559.939 158 552.475 158.624C552.763 158.984 553.099 159.608 553.195 159.992C561.115 159.2 563.635 157.304 564.547 153.152H562.867ZM555.475 156.416C559.051 157.28 563.635 158.816 565.963 159.992L566.995 158.72C564.523 157.52 559.939 156.056 556.459 155.312L555.475 156.416ZM552.907 141.92V143.36H555.427V143.24H564.883V143.36H567.379V141.92H564.883V142.04H555.427V141.92H552.907ZM545.419 143.048V144.752H552.931V143.048H545.419ZM548.635 137.84V159.896H550.291V137.84H548.635ZM548.611 144.056C547.987 147.488 546.451 151.64 544.915 153.824C545.203 154.232 545.635 154.904 545.851 155.384C547.507 152.984 549.019 148.232 549.715 144.44L548.611 144.056ZM550.147 146.408L549.403 147.128C549.979 148.064 551.611 150.896 552.115 152.072L553.075 150.752C552.643 150.08 550.675 147.056 550.147 146.408ZM575.491 148.88C575.491 144.2 573.595 140.408 570.715 137.48L569.275 138.224C572.059 141.08 573.763 144.608 573.763 148.88C573.763 153.176 572.059 156.704 569.275 159.56L570.715 160.304C573.595 157.376 575.491 153.584 575.491 148.88Z" fill="#004397"/>
</svg>
